<svg xmlns="http://www.w3.org/2000/svg" viewBox="0 0 320 664" width="320" height="664"><defs><clipPath id="sc"><rect x="12" y="12" width="296" height="640" rx="30"/></clipPath></defs><rect x="0" y="0" width="320" height="664" rx="44" fill="#0a0a0a" /><g clip-path="url(#sc)"><rect x="12" y="12" width="296" height="640" rx="30" fill="#F4F6F8" /><text x="292" y="40" font-family='Arial, sans-serif' font-size="11" font-weight="700" fill="#0F1216" fill-opacity="1" text-anchor="end" direction="rtl">9:41</text><text x="40" y="40" font-family='Arial, sans-serif' font-size="10" font-weight="700" fill="#0F1216" fill-opacity="0.7" text-anchor="start" direction="rtl">● ▮ ▲</text><rect x="250" y="58" width="34" height="34" rx="16" fill="#2F6BFF" /><text x="267" y="80" font-family='Arial' font-size="18" font-weight="700" fill="#FFFFFF" fill-opacity="1" text-anchor="middle" direction="rtl">ر</text><text x="244" y="82" font-family='Arial, sans-serif' font-size="19" font-weight="700" fill="#0F1216" fill-opacity="1" text-anchor="end" direction="rtl">رفيق</text><circle cx="46" cy="75" r="17" fill="#2F6BFF" /><text x="46" y="80" font-family='Arial, sans-serif' font-size="13" font-weight="700" fill="#FFFFFF" fill-opacity="1" text-anchor="middle" direction="rtl">ح</text><rect x="28" y="104" width="264" height="92" rx="20" fill="#0F1216" /><text x="280" y="134" font-family='Arial, sans-serif' font-size="11" font-weight="700" fill="#ffffffcc" fill-opacity="1" text-anchor="end" direction="rtl">رصيد المحفظة</text><text x="280" y="164" font-family='Arial, sans-serif' font-size="24" font-weight="700" fill="#FFFFFF" fill-opacity="1" text-anchor="end" direction="rtl">12.500 د.أ</text><rect x="160" y="174" width="120" height="18" rx="9" fill="#2F6BFF" /><rect x="40" y="174" width="110" height="18" rx="9" fill="#ffffff28" /><rect x="40" y="208" width="48" height="48" rx="18" fill="#FFFFFF" stroke="#E7EAEF"/><g stroke="#2F6BFF" stroke-width="2.16" fill="none" stroke-linecap="round" stroke-linejoin="round" transform="translate(64,232)"><path d="M -12 3 L -9 -4 Q -7 -7 -3 -7 L 3 -7 Q 7 -7 9 -4 L 12 3"/><rect x="-12" y="3" width="24" height="6" rx="2"/><circle cx="-7" cy="10" r="2.4"/><circle cx="7" cy="10" r="2.4"/></g><text x="64" y="264" font-family='Arial, sans-serif' font-size="10" font-weight="600" fill="#0F1216" fill-opacity="1" text-anchor="middle" direction="rtl">رحلة</text><rect x="104" y="208" width="48" height="48" rx="18" fill="#FFFFFF" stroke="#E7EAEF"/><g stroke="#2F6BFF" stroke-width="2.16" fill="none" stroke-linecap="round" stroke-linejoin="round" transform="translate(128,232)"><rect x="-12" y="-10" width="24" height="20" rx="2.5"/><line x1="-8" y1="0" x2="8" y2="0"/><line x1="-8" y1="4" x2="1" y2="4"/></g><text x="128" y="264" font-family='Arial, sans-serif' font-size="10" font-weight="600" fill="#0F1216" fill-opacity="1" text-anchor="middle" direction="rtl">اشتراك</text><rect x="168" y="208" width="48" height="48" rx="18" fill="#FFFFFF" stroke="#E7EAEF"/><g stroke="#2F6BFF" stroke-width="2.16" fill="none" stroke-linecap="round" stroke-linejoin="round" transform="translate(192,232)"><path d="M 0 -12 L 12 -6 L 12 6 L 0 12 L -12 6 L -12 -6 Z"/><path d="M -12 -6 L 0 0 L 12 -6 M 0 0 L 0 12"/></g><text x="192" y="264" font-family='Arial, sans-serif' font-size="10" font-weight="600" fill="#0F1216" fill-opacity="1" text-anchor="middle" direction="rtl">طرود</text><rect x="232" y="208" width="48" height="48" rx="18" fill="#FFFFFF" stroke="#E7EAEF"/><g stroke="#2F6BFF" stroke-width="2.16" fill="none" stroke-linecap="round" stroke-linejoin="round" transform="translate(256,232)"><rect x="-12" y="-2" width="24" height="12" rx="1.5"/><line x1="0" y1="-2" x2="0" y2="10"/><path d="M 0 -2 Q -6 -10 -3 -2 M 0 -2 Q 6 -10 3 -2"/></g><text x="256" y="264" font-family='Arial, sans-serif' font-size="10" font-weight="600" fill="#0F1216" fill-opacity="1" text-anchor="middle" direction="rtl">مكافآت</text><text x="280" y="300" font-family='Arial, sans-serif' font-size="13" font-weight="800" fill="#0F1216" fill-opacity="1" text-anchor="end" direction="rtl">رحلتك القادمة</text><rect x="28" y="314" width="264" height="52" rx="20" fill="#FFFFFF" stroke="#E7EAEF"/><text x="280" y="336" font-family='Arial, sans-serif' font-size="11.5" font-weight="800" fill="#0F1216" fill-opacity="1" text-anchor="end" direction="rtl">الجامعة الأردنية ← دابوق</text><text x="280" y="352" font-family='Arial, sans-serif' font-size="10" font-weight="600" fill="#8A94A6" fill-opacity="1" text-anchor="end" direction="rtl">اليوم · 8:30 ص</text><rect x="40" y="330" width="54" height="20" rx="10" fill="#2F6BFF22" /><text x="67" y="344" font-family='Arial, sans-serif' font-size="9.5" font-weight="800" fill="#2F6BFF" fill-opacity="1" text-anchor="middle" direction="rtl">مؤكّدة</text><rect x="28" y="384" width="264" height="52" rx="20" fill="#2F6BFF" /><g stroke="#FFFFFF" stroke-width="1.7999999999999998" fill="none" stroke-linecap="round" stroke-linejoin="round" transform="translate(250,410)"><path d="M -10 3 L -7 -4 Q -5 -7 -1 -7 L 1 -7 Q 5 -7 7 -4 L 10 3"/><rect x="-10" y="3" width="20" height="6" rx="2"/><circle cx="-5" cy="10" r="2.4"/><circle cx="5" cy="10" r="2.4"/></g><text x="232" y="416" font-family='Arial, sans-serif' font-size="14" font-weight="800" fill="#FFFFFF" fill-opacity="1" text-anchor="middle" direction="rtl">اطلب رحلة الآن</text><rect x="12" y="592" width="296" height="60" rx="0" fill="#FFFFFF" /><line x1="12" y1="592" x2="308" y2="592" stroke="#E7EAEF"/><rect x="30" y="600" width="44" height="26" rx="13" fill="#2F6BFF22" /><g stroke="#2F6BFF" stroke-width="1.7999999999999998" fill="none" stroke-linecap="round" stroke-linejoin="round" transform="translate(52,613)"><path d="M -10 1 L 0 -10 L 10 1 L 10 10 L -10 10 Z"/></g><text x="52" y="640" font-family='Arial, sans-serif' font-size="9" font-weight="700" fill="#2F6BFF" fill-opacity="1" text-anchor="middle" direction="rtl">الرئيسية</text><g stroke="#8A94A6" stroke-width="1.7999999999999998" fill="none" stroke-linecap="round" stroke-linejoin="round" transform="translate(124,613)"><path d="M -10 3 L -7 -4 Q -5 -7 -1 -7 L 1 -7 Q 5 -7 7 -4 L 10 3"/><rect x="-10" y="3" width="20" height="6" rx="2"/><circle cx="-5" cy="10" r="2.4"/><circle cx="5" cy="10" r="2.4"/></g><text x="124" y="640" font-family='Arial, sans-serif' font-size="9" font-weight="700" fill="#8A94A6" fill-opacity="1" text-anchor="middle" direction="rtl">رحلاتي</text><g stroke="#8A94A6" stroke-width="1.7999999999999998" fill="none" stroke-linecap="round" stroke-linejoin="round" transform="translate(196,613)"><rect x="-10" y="-6.666666666666667" width="20" height="18" rx="3"/><circle cx="6" cy="1" r="2"/></g><text x="196" y="640" font-family='Arial, sans-serif' font-size="9" font-weight="700" fill="#8A94A6" fill-opacity="1" text-anchor="middle" direction="rtl">المحفظة</text><g stroke="#8A94A6" stroke-width="1.7999999999999998" fill="none" stroke-linecap="round" stroke-linejoin="round" transform="translate(268,613)"><circle cx="0" cy="-5" r="4.545454545454545"/><path d="M -10 10 Q 0 -1 10 10"/></g><text x="268" y="640" font-family='Arial, sans-serif' font-size="9" font-weight="700" fill="#8A94A6" fill-opacity="1" text-anchor="middle" direction="rtl">حسابي</text></g></svg>