<svg xmlns="http://www.w3.org/2000/svg" viewBox="0 0 320 664" width="320" height="664"><defs><clipPath id="sc"><rect x="12" y="12" width="296" height="640" rx="30"/></clipPath></defs><rect x="0" y="0" width="320" height="664" rx="44" fill="#0a0a0a" /><g clip-path="url(#sc)"><rect x="12" y="12" width="296" height="640" rx="30" fill="#F4F6F9" /><text x="292" y="40" font-family='Arial, sans-serif' font-size="11" font-weight="700" fill="#0F1216" fill-opacity="1" text-anchor="end" direction="rtl">9:41</text><text x="40" y="40" font-family='Arial, sans-serif' font-size="10" font-weight="700" fill="#0F1216" fill-opacity="0.7" text-anchor="start" direction="rtl">● ▮ ▲</text><rect x="250" y="58" width="34" height="34" rx="12" fill="#1D4ED8" /><text x="267" y="80" font-family='Arial' font-size="18" font-weight="700" fill="#FFFFFF" fill-opacity="1" text-anchor="middle" direction="rtl">ر</text><text x="244" y="82" font-family='Arial, sans-serif' font-size="19" font-weight="700" fill="#0F1216" fill-opacity="1" text-anchor="end" direction="rtl">رفيق</text><circle cx="46" cy="75" r="17" fill="#1D4ED8" /><text x="46" y="80" font-family='Arial, sans-serif' font-size="13" font-weight="700" fill="#FFFFFF" fill-opacity="1" text-anchor="middle" direction="rtl">ح</text><rect x="28" y="104" width="264" height="92" rx="12" fill="#0A1F44" stroke="#E7EAEF" stroke-width="1.4"/><text x="280" y="134" font-family='Arial, sans-serif' font-size="11" font-weight="700" fill="#ffffffcc" fill-opacity="1" text-anchor="end" direction="rtl">رصيد المحفظة</text><text x="280" y="164" font-family='Arial, sans-serif' font-size="24" font-weight="700" fill="#FFFFFF" fill-opacity="1" text-anchor="end" direction="rtl">12.500 د.أ</text><rect x="160" y="174" width="120" height="18" rx="9" fill="#1D4ED8" /><rect x="40" y="174" width="110" height="18" rx="9" fill="#ffffff28" /><text x="280" y="232" font-family='Arial, sans-serif' font-size="13" font-weight="800" fill="#0F1216" fill-opacity="1" text-anchor="end" direction="rtl">الخدمات</text><rect x="28" y="246" width="264" height="46" rx="12" fill="#FFFFFF" stroke="#E7EAEF" stroke-width="1.4"/><rect x="244" y="253" width="32" height="32" rx="10" fill="#1D4ED822" /><g stroke="#1D4ED8" stroke-width="1.7999999999999998" fill="none" stroke-linecap="round" stroke-linejoin="round" transform="translate(260,269)"><path d="M -10 3 L -7 -4 Q -5 -7 -1 -7 L 1 -7 Q 5 -7 7 -4 L 10 3"/><rect x="-10" y="3" width="20" height="6" rx="2"/><circle cx="-5" cy="10" r="2.4"/><circle cx="5" cy="10" r="2.4"/></g><text x="232" y="267" font-family='Arial, sans-serif' font-size="12.5" font-weight="800" fill="#0F1216" fill-opacity="1" text-anchor="end" direction="rtl">رحلة</text><text x="232" y="283" font-family='Arial, sans-serif' font-size="9.5" font-weight="600" fill="#8A94A6" fill-opacity="1" text-anchor="end" direction="rtl">اطلب الآن</text><text x="46" y="274" font-family='Arial, sans-serif' font-size="16" font-weight="700" fill="#8A94A6" fill-opacity="1" text-anchor="start" direction="rtl">‹</text><rect x="28" y="302" width="264" height="46" rx="12" fill="#FFFFFF" stroke="#E7EAEF" stroke-width="1.4"/><rect x="244" y="309" width="32" height="32" rx="10" fill="#1D4ED822" /><g stroke="#1D4ED8" stroke-width="1.7999999999999998" fill="none" stroke-linecap="round" stroke-linejoin="round" transform="translate(260,325)"><rect x="-10" y="-8" width="20" height="16" rx="2.5"/><line x1="-6" y1="0" x2="6" y2="0"/><line x1="-6" y1="4" x2="1" y2="4"/></g><text x="232" y="323" font-family='Arial, sans-serif' font-size="12.5" font-weight="800" fill="#0F1216" fill-opacity="1" text-anchor="end" direction="rtl">اشتراك</text><text x="232" y="339" font-family='Arial, sans-serif' font-size="9.5" font-weight="600" fill="#8A94A6" fill-opacity="1" text-anchor="end" direction="rtl">اطلب الآن</text><text x="46" y="330" font-family='Arial, sans-serif' font-size="16" font-weight="700" fill="#8A94A6" fill-opacity="1" text-anchor="start" direction="rtl">‹</text><rect x="28" y="358" width="264" height="46" rx="12" fill="#FFFFFF" stroke="#E7EAEF" stroke-width="1.4"/><rect x="244" y="365" width="32" height="32" rx="10" fill="#1D4ED822" /><g stroke="#1D4ED8" stroke-width="1.7999999999999998" fill="none" stroke-linecap="round" stroke-linejoin="round" transform="translate(260,381)"><path d="M 0 -10 L 10 -5 L 10 5 L 0 10 L -10 5 L -10 -5 Z"/><path d="M -10 -5 L 0 0 L 10 -5 M 0 0 L 0 10"/></g><text x="232" y="379" font-family='Arial, sans-serif' font-size="12.5" font-weight="800" fill="#0F1216" fill-opacity="1" text-anchor="end" direction="rtl">طرود</text><text x="232" y="395" font-family='Arial, sans-serif' font-size="9.5" font-weight="600" fill="#8A94A6" fill-opacity="1" text-anchor="end" direction="rtl">اطلب الآن</text><text x="46" y="386" font-family='Arial, sans-serif' font-size="16" font-weight="700" fill="#8A94A6" fill-opacity="1" text-anchor="start" direction="rtl">‹</text><rect x="28" y="420" width="264" height="50" rx="12" fill="#1D4ED8" /><text x="160" y="451" font-family='Arial, sans-serif' font-size="14" font-weight="800" fill="#FFFFFF" fill-opacity="1" text-anchor="middle" direction="rtl">اطلب رحلة الآن</text><rect x="12" y="592" width="296" height="60" rx="0" fill="#FFFFFF" /><line x1="12" y1="592" x2="308" y2="592" stroke="#E7EAEF"/><rect x="30" y="600" width="44" height="26" rx="13" fill="#1D4ED822" /><g stroke="#1D4ED8" stroke-width="1.7999999999999998" fill="none" stroke-linecap="round" stroke-linejoin="round" transform="translate(52,613)"><path d="M -10 1 L 0 -10 L 10 1 L 10 10 L -10 10 Z"/></g><text x="52" y="640" font-family='Arial, sans-serif' font-size="9" font-weight="700" fill="#1D4ED8" fill-opacity="1" text-anchor="middle" direction="rtl">الرئيسية</text><g stroke="#8A94A6" stroke-width="1.7999999999999998" fill="none" stroke-linecap="round" stroke-linejoin="round" transform="translate(124,613)"><path d="M -10 3 L -7 -4 Q -5 -7 -1 -7 L 1 -7 Q 5 -7 7 -4 L 10 3"/><rect x="-10" y="3" width="20" height="6" rx="2"/><circle cx="-5" cy="10" r="2.4"/><circle cx="5" cy="10" r="2.4"/></g><text x="124" y="640" font-family='Arial, sans-serif' font-size="9" font-weight="700" fill="#8A94A6" fill-opacity="1" text-anchor="middle" direction="rtl">رحلاتي</text><g stroke="#8A94A6" stroke-width="1.7999999999999998" fill="none" stroke-linecap="round" stroke-linejoin="round" transform="translate(196,613)"><rect x="-10" y="-6.666666666666667" width="20" height="18" rx="3"/><circle cx="6" cy="1" r="2"/></g><text x="196" y="640" font-family='Arial, sans-serif' font-size="9" font-weight="700" fill="#8A94A6" fill-opacity="1" text-anchor="middle" direction="rtl">المحفظة</text><g stroke="#8A94A6" stroke-width="1.7999999999999998" fill="none" stroke-linecap="round" stroke-linejoin="round" transform="translate(268,613)"><circle cx="0" cy="-5" r="4.545454545454545"/><path d="M -10 10 Q 0 -1 10 10"/></g><text x="268" y="640" font-family='Arial, sans-serif' font-size="9" font-weight="700" fill="#8A94A6" fill-opacity="1" text-anchor="middle" direction="rtl">حسابي</text></g></svg>