<svg xmlns="http://www.w3.org/2000/svg" viewBox="0 0 320 664" width="320" height="664"><defs><clipPath id="sc"><rect x="12" y="12" width="296" height="640" rx="30"/></clipPath></defs><rect x="0" y="0" width="320" height="664" rx="44" fill="#0a0a0a" /><g clip-path="url(#sc)"><rect x="12" y="12" width="296" height="640" rx="30" fill="#F4F6F8" /><rect x="12" y="12" width="52" height="640" rx="0" fill="#0F1216" /><rect x="24" y="48" width="40" height="40" rx="12" fill="#2F6BFF" /><g stroke="#FFFFFF" stroke-width="1.98" fill="none" stroke-linecap="round" stroke-linejoin="round" transform="translate(44,70)"><path d="M -11 1 L 0 -11 L 11 1 L 11 11 L -11 11 Z"/></g><g stroke="#ffffff88" stroke-width="1.98" fill="none" stroke-linecap="round" stroke-linejoin="round" transform="translate(44,140)"><path d="M -11 3 L -8 -4 Q -6 -7 -2 -7 L 2 -7 Q 6 -7 8 -4 L 11 3"/><rect x="-11" y="3" width="22" height="6" rx="2"/><circle cx="-6" cy="10" r="2.4"/><circle cx="6" cy="10" r="2.4"/></g><g stroke="#ffffff88" stroke-width="1.98" fill="none" stroke-linecap="round" stroke-linejoin="round" transform="translate(44,210)"><rect x="-11" y="-7.333333333333333" width="22" height="19.8" rx="3"/><circle cx="7" cy="1" r="2"/></g><g stroke="#ffffff88" stroke-width="1.98" fill="none" stroke-linecap="round" stroke-linejoin="round" transform="translate(44,280)"><rect x="-11" y="-2" width="22" height="11" rx="1.5"/><line x1="0" y1="-2" x2="0" y2="9"/><path d="M 0 -2 Q -6 -10 -3 -2 M 0 -2 Q 6 -10 3 -2"/></g><g stroke="#ffffff88" stroke-width="1.98" fill="none" stroke-linecap="round" stroke-linejoin="round" transform="translate(44,350)"><circle cx="0" cy="-5.5" r="5"/><path d="M -11 11 Q 0 -1 11 11"/></g><text x="232" y="80" font-family='Arial, sans-serif' font-size="18" font-weight="800" fill="#0F1216" fill-opacity="1" text-anchor="end" direction="rtl">مرحباً حمزة</text><rect x="76" y="100" width="196" height="90" rx="16" fill="#0F1216" /><text x="256" y="128" font-family='Arial, sans-serif' font-size="11" font-weight="700" fill="#ffffffcc" fill-opacity="1" text-anchor="end" direction="rtl">رصيد المحفظة</text><text x="256" y="160" font-family='Arial, sans-serif' font-size="22" font-weight="700" fill="#FFFFFF" fill-opacity="1" text-anchor="end" direction="rtl">12.500 د.أ</text><rect x="86" y="190" width="48" height="48" rx="18" fill="#FFFFFF" stroke="#E7EAEF"/><g stroke="#2F6BFF" stroke-width="2.16" fill="none" stroke-linecap="round" stroke-linejoin="round" transform="translate(110,214)"><path d="M -12 3 L -9 -4 Q -7 -7 -3 -7 L 3 -7 Q 7 -7 9 -4 L 12 3"/><rect x="-12" y="3" width="24" height="6" rx="2"/><circle cx="-7" cy="10" r="2.4"/><circle cx="7" cy="10" r="2.4"/></g><text x="110" y="254" font-family='Arial, sans-serif' font-size="10" font-weight="600" fill="#0F1216" fill-opacity="1" text-anchor="middle" direction="rtl">رحلة</text><rect x="176" y="190" width="48" height="48" rx="18" fill="#FFFFFF" stroke="#E7EAEF"/><g stroke="#2F6BFF" stroke-width="2.16" fill="none" stroke-linecap="round" stroke-linejoin="round" transform="translate(200,214)"><rect x="-12" y="-10" width="24" height="20" rx="2.5"/><line x1="-8" y1="0" x2="8" y2="0"/><line x1="-8" y1="4" x2="1" y2="4"/></g><text x="200" y="254" font-family='Arial, sans-serif' font-size="10" font-weight="600" fill="#0F1216" fill-opacity="1" text-anchor="middle" direction="rtl">اشتراك</text><rect x="86" y="264" width="48" height="48" rx="18" fill="#FFFFFF" stroke="#E7EAEF"/><g stroke="#2F6BFF" stroke-width="2.16" fill="none" stroke-linecap="round" stroke-linejoin="round" transform="translate(110,288)"><path d="M 0 -12 L 12 -6 L 12 6 L 0 12 L -12 6 L -12 -6 Z"/><path d="M -12 -6 L 0 0 L 12 -6 M 0 0 L 0 12"/></g><text x="110" y="328" font-family='Arial, sans-serif' font-size="10" font-weight="600" fill="#0F1216" fill-opacity="1" text-anchor="middle" direction="rtl">طرود</text><rect x="176" y="264" width="48" height="48" rx="18" fill="#FFFFFF" stroke="#E7EAEF"/><g stroke="#2F6BFF" stroke-width="2.16" fill="none" stroke-linecap="round" stroke-linejoin="round" transform="translate(200,288)"><rect x="-12" y="-2" width="24" height="12" rx="1.5"/><line x1="0" y1="-2" x2="0" y2="10"/><path d="M 0 -2 Q -6 -10 -3 -2 M 0 -2 Q 6 -10 3 -2"/></g><text x="200" y="328" font-family='Arial, sans-serif' font-size="10" font-weight="600" fill="#0F1216" fill-opacity="1" text-anchor="middle" direction="rtl">مكافآت</text><rect x="76" y="362" width="196" height="50" rx="16" fill="#2F6BFF" /><text x="174" y="393" font-family='Arial, sans-serif' font-size="14" font-weight="800" fill="#FFFFFF" fill-opacity="1" text-anchor="middle" direction="rtl">اطلب رحلة الآن</text></g></svg>