<svg xmlns="http://www.w3.org/2000/svg" viewBox="0 0 320 664" width="320" height="664"><defs><clipPath id="sc"><rect x="12" y="12" width="296" height="640" rx="30"/></clipPath></defs><rect x="0" y="0" width="320" height="664" rx="44" fill="#0a0a0a" /><g clip-path="url(#sc)"><rect x="12" y="12" width="296" height="640" rx="30" fill="#F7FBF0" /><text x="292" y="40" font-family='Arial, sans-serif' font-size="11" font-weight="700" fill="#1A2E05" fill-opacity="1" text-anchor="end" direction="rtl">9:41</text><text x="40" y="40" font-family='Arial, sans-serif' font-size="10" font-weight="700" fill="#1A2E05" fill-opacity="0.7" text-anchor="start" direction="rtl">● ▮ ▲</text><rect x="250" y="58" width="34" height="34" rx="16" fill="#84CC16" /><text x="267" y="80" font-family='Arial' font-size="18" font-weight="700" fill="#FFFFFF" fill-opacity="1" text-anchor="middle" direction="rtl">ر</text><text x="244" y="82" font-family='Arial, sans-serif' font-size="19" font-weight="700" fill="#1A2E05" fill-opacity="1" text-anchor="end" direction="rtl">رفيق</text><circle cx="46" cy="75" r="17" fill="#84CC16" /><text x="46" y="80" font-family='Arial, sans-serif' font-size="13" font-weight="700" fill="#FFFFFF" fill-opacity="1" text-anchor="middle" direction="rtl">ح</text><text x="160" y="150" font-family='Arial, sans-serif' font-size="15" font-weight="600" fill="#8A94A6" fill-opacity="1" text-anchor="middle" direction="rtl">وين رايح اليوم؟</text><circle cx="160" cy="300" r="92" fill="#84CC16" /><g stroke="#FFFFFF" stroke-width="5.22" fill="none" stroke-linecap="round" stroke-linejoin="round" transform="translate(160,280)"><path d="M -29 3 L -26 -4 Q -24 -7 -20 -7 L 20 -7 Q 24 -7 26 -4 L 29 3"/><rect x="-29" y="3" width="58" height="6" rx="2"/><circle cx="-24" cy="10" r="2.4"/><circle cx="24" cy="10" r="2.4"/></g><text x="160" y="338" font-family='Arial, sans-serif' font-size="17" font-weight="800" fill="#FFFFFF" fill-opacity="1" text-anchor="middle" direction="rtl">اطلب رحلة</text><rect x="38" y="430" width="64" height="58" rx="14" fill="#84CC1622" /><g stroke="#84CC16" stroke-width="2.34" fill="none" stroke-linecap="round" stroke-linejoin="round" transform="translate(70,452)"><path d="M -13 3 L -10 -4 Q -8 -7 -4 -7 L 4 -7 Q 8 -7 10 -4 L 13 3"/><rect x="-13" y="3" width="26" height="6" rx="2"/><circle cx="-8" cy="10" r="2.4"/><circle cx="8" cy="10" r="2.4"/></g><text x="70" y="480" font-family='Arial, sans-serif' font-size="10" font-weight="600" fill="#1A2E05" fill-opacity="1" text-anchor="middle" direction="rtl">رحلة</text><rect x="128" y="430" width="64" height="58" rx="14" fill="#84CC1622" /><g stroke="#84CC16" stroke-width="2.34" fill="none" stroke-linecap="round" stroke-linejoin="round" transform="translate(160,452)"><rect x="-13" y="-11" width="26" height="22" rx="2.5"/><line x1="-9" y1="0" x2="9" y2="0"/><line x1="-9" y1="4" x2="1" y2="4"/></g><text x="160" y="480" font-family='Arial, sans-serif' font-size="10" font-weight="600" fill="#1A2E05" fill-opacity="1" text-anchor="middle" direction="rtl">اشتراك</text><rect x="218" y="430" width="64" height="58" rx="14" fill="#84CC1622" /><g stroke="#84CC16" stroke-width="2.34" fill="none" stroke-linecap="round" stroke-linejoin="round" transform="translate(250,452)"><path d="M 0 -13 L 13 -6.5 L 13 6.5 L 0 13 L -13 6.5 L -13 -6.5 Z"/><path d="M -13 -6.5 L 0 0 L 13 -6.5 M 0 0 L 0 13"/></g><text x="250" y="480" font-family='Arial, sans-serif' font-size="10" font-weight="600" fill="#1A2E05" fill-opacity="1" text-anchor="middle" direction="rtl">طرود</text><rect x="12" y="592" width="296" height="60" rx="0" fill="#FFFFFF" /><line x1="12" y1="592" x2="308" y2="592" stroke="#E7EAEF"/><rect x="30" y="600" width="44" height="26" rx="13" fill="#84CC1622" /><g stroke="#84CC16" stroke-width="1.7999999999999998" fill="none" stroke-linecap="round" stroke-linejoin="round" transform="translate(52,613)"><path d="M -10 1 L 0 -10 L 10 1 L 10 10 L -10 10 Z"/></g><text x="52" y="640" font-family='Arial, sans-serif' font-size="9" font-weight="700" fill="#84CC16" fill-opacity="1" text-anchor="middle" direction="rtl">الرئيسية</text><g stroke="#8A94A6" stroke-width="1.7999999999999998" fill="none" stroke-linecap="round" stroke-linejoin="round" transform="translate(124,613)"><path d="M -10 3 L -7 -4 Q -5 -7 -1 -7 L 1 -7 Q 5 -7 7 -4 L 10 3"/><rect x="-10" y="3" width="20" height="6" rx="2"/><circle cx="-5" cy="10" r="2.4"/><circle cx="5" cy="10" r="2.4"/></g><text x="124" y="640" font-family='Arial, sans-serif' font-size="9" font-weight="700" fill="#8A94A6" fill-opacity="1" text-anchor="middle" direction="rtl">رحلاتي</text><g stroke="#8A94A6" stroke-width="1.7999999999999998" fill="none" stroke-linecap="round" stroke-linejoin="round" transform="translate(196,613)"><rect x="-10" y="-6.666666666666667" width="20" height="18" rx="3"/><circle cx="6" cy="1" r="2"/></g><text x="196" y="640" font-family='Arial, sans-serif' font-size="9" font-weight="700" fill="#8A94A6" fill-opacity="1" text-anchor="middle" direction="rtl">المحفظة</text><g stroke="#8A94A6" stroke-width="1.7999999999999998" fill="none" stroke-linecap="round" stroke-linejoin="round" transform="translate(268,613)"><circle cx="0" cy="-5" r="4.545454545454545"/><path d="M -10 10 Q 0 -1 10 10"/></g><text x="268" y="640" font-family='Arial, sans-serif' font-size="9" font-weight="700" fill="#8A94A6" fill-opacity="1" text-anchor="middle" direction="rtl">حسابي</text></g></svg>