<svg width="64" height="64" viewBox="0 0 512 512" fill="none" xmlns="http://www.w3.org/2000/svg">
  <defs>
    <linearGradient id="fav" x1="0" y1="0" x2="512" y2="512" gradientUnits="userSpaceOnUse">
      <stop stop-color="#0E261C"/><stop offset="1" stop-color="#04120C"/>
    </linearGradient>
    <linearGradient id="favGold" x1="190" y1="120" x2="400" y2="430" gradientUnits="userSpaceOnUse">
      <stop stop-color="#F7DA84"/><stop offset="0.55" stop-color="#E6B23E"/><stop offset="1" stop-color="#B9841A"/>
    </linearGradient>
    <clipPath id="favClip"><rect width="512" height="512" rx="128"/></clipPath>
  </defs>
  <rect width="512" height="512" rx="128" fill="url(#fav)"/>
  <g clip-path="url(#favClip)">
    <rect x="0" y="436" width="512" height="76" fill="#0B6E3B"/>
    <rect x="0" y="436" width="512" height="26" fill="#FFFFFF" fill-opacity="0.92"/>
    <rect x="0" y="436" width="512" height="9" fill="#0A0A0A"/>
    <path d="M0 0 L 250 256 L 0 512 Z" fill="#CE1126"/>
  </g>
  <g transform="translate(98 250) scale(0.82)" fill="#FFFFFF">
    <path d="M 0,-72 L 14.75,-30.63 L 56.29,-44.89 L 33.15,-7.57 L 70.19,16.02 L 26.58,21.2 L 31.24,64.86 L 0,34 L -31.24,64.86 L -26.58,21.2 L -70.19,16.02 L -33.15,-7.57 L -56.29,-44.89 L -14.75,-30.63 Z"/>
  </g>
  <text x="332" y="372" text-anchor="middle" font-family="Arial, Helvetica, sans-serif" font-size="340" font-weight="900" fill="url(#favGold)">R</text>
</svg>
